<?xml version="1.0" standalone="no"?>
<!DOCTYPE svg PUBLIC "-//W3C//DTD SVG 20010904//EN"
 "http://www.w3.org/TR/2001/REC-SVG-20010904/DTD/svg10.dtd">
<svg version="1.0" xmlns="http://www.w3.org/2000/svg"
 width="96.000000pt" height="96.000000pt" viewBox="0 0 96.000000 96.000000"
 preserveAspectRatio="xMidYMid meet">
<metadata>
Created by potrace 1.14, written by Peter Selinger 2001-2017
</metadata>
<g transform="translate(0.000000,96.000000) scale(0.100000,-0.100000)"
fill="#000000" stroke="none">
<path d="M370 948 c-58 -16 -61 -22 -38 -89 14 -40 17 -63 10 -72 -14 -17 -13
-97 1 -97 7 0 -11 -22 -39 -48 -99 -92 -177 -224 -204 -345 -17 -74 -7 -116
39 -169 73 -82 207 -129 360 -124 93 3 112 6 123 20 4 6 24 4 50 -4 103 -31
205 -20 258 30 l30 28 0 147 0 147 -29 27 c-29 28 -90 51 -131 51 -15 0 -20 5
-17 14 8 20 -43 97 -107 158 -51 50 -54 57 -50 93 2 22 -1 51 -6 65 -8 19 -6
39 9 82 22 64 19 70 -40 86 -46 12 -173 12 -219 0z"/>
<path d="M206 942 c-8 -14 80 -95 94 -87 8 5 -2 22 -31 51 -44 45 -54 50 -63
36z"/>
<path d="M691 906 c-29 -29 -39 -46 -31 -51 14 -8 102 73 94 87 -9 14 -19 9
-63 -36z"/>
<path d="M116 882 c-5 -9 156 -122 173 -122 30 0 3 30 -69 78 -80 52 -95 59
-104 44z"/>
<path d="M737 836 c-94 -64 -94 -64 -74 -71 18 -7 189 103 181 116 -10 16 -28
8 -107 -45z"/>
<path d="M72 838 c-7 -7 -12 -17 -12 -24 0 -6 -13 -17 -30 -24 -37 -15 -38
-26 -2 -47 16 -9 37 -30 47 -47 l17 -31 15 30 c8 17 28 38 44 47 37 22 37 32
-1 48 -18 7 -33 22 -36 36 -7 26 -23 31 -42 12z"/>
<path d="M854 653 c-11 -18 -31 -38 -46 -44 -35 -15 -35 -26 0 -46 16 -9 36
-30 46 -46 16 -29 17 -29 31 -11 8 10 15 24 15 30 0 6 14 17 30 24 38 16 38
26 1 48 -16 9 -36 30 -44 47 l-15 30 -18 -32z"/>
</g>
</svg>
